<?xml version="1.0" standalone="no"?>
<!DOCTYPE svg PUBLIC "-//W3C//DTD SVG 20010904//EN"
 "http://www.w3.org/TR/2001/REC-SVG-20010904/DTD/svg10.dtd">
<svg version="1.0" xmlns="http://www.w3.org/2000/svg"
 width="135px" height="45px" viewBox="0 0 1500.000000 500.000000"
 preserveAspectRatio="xMidYMid meet">

<g transform="translate(0.000000,500.000000) scale(0.100000,-0.100000)"
fill="#000000" stroke="none">
<path d="M0 3330 l0 -1670 7500 0 7500 0 0 1670 0 1670 -7500 0 -7500 0 0
-1670z m6770 1219 c106 -49 151 -108 185 -240 26 -97 15 -223 -39 -474 -25
-115 -84 -392 -131 -615 -47 -223 -97 -459 -111 -524 -58 -270 -151 -422 -328
-540 -161 -107 -426 -104 -550 4 -116 103 -142 278 -82 555 15 66 33 149 41
185 8 36 46 214 84 395 186 880 175 834 226 936 38 75 125 189 178 232 97 81
216 117 367 114 88 -2 114 -7 160 -28z m1643 3 c78 -35 123 -77 158 -148 30
-60 32 -74 37 -187 4 -119 -9 -262 -25 -278 -4 -4 -62 -13 -128 -19 -66 -6
-144 -13 -174 -17 l-54 -6 7 39 c35 195 5 314 -78 314 -95 0 -178 -148 -178
-316 1 -112 24 -178 172 -493 143 -306 198 -497 186 -646 -8 -109 -52 -260
-107 -373 -42 -86 -63 -117 -127 -181 -118 -118 -231 -163 -407 -164 -284 -1
-415 125 -415 400 0 99 25 290 40 306 8 9 340 41 347 33 3 -3 -2 -54 -11 -113
-11 -80 -13 -124 -6 -166 16 -98 40 -126 109 -127 86 0 141 60 187 206 49 154
23 264 -143 612 -122 256 -162 372 -184 540 -14 106 -7 193 26 306 71 244 215
411 417 481 65 23 85 25 188 22 91 -3 125 -8 163 -25z m1552 14 c77 -24 150
-79 185 -138 62 -109 75 -282 36 -450 -9 -34 -47 -213 -86 -395 -162 -769
-212 -995 -230 -1048 -50 -146 -132 -267 -234 -344 -79 -59 -146 -87 -246
-105 -213 -37 -376 38 -442 203 -19 47 -22 75 -22 181 0 128 9 182 129 720 8
36 46 216 85 400 120 568 125 586 207 714 89 139 206 228 341 260 76 19 217
20 277 2z m-6771 -18 c2 -7 9 -107 15 -223 32 -568 70 -1157 76 -1163 7 -7 22
37 39 121 9 42 23 110 32 150 8 39 66 308 127 597 l112 525 163 3 c149 2 162
1 162 -15 0 -10 -25 -132 -55 -273 -30 -140 -88 -417 -130 -615 -41 -198 -82
-390 -90 -427 -8 -38 -22 -98 -30 -135 -8 -38 -53 -250 -100 -473 -47 -223
-91 -430 -98 -460 l-13 -55 -157 -3 c-121 -2 -158 0 -162 10 -2 7 -9 99 -15
203 -6 105 -17 291 -25 415 -8 124 -21 344 -30 490 -15 246 -24 310 -39 264
-3 -11 -26 -116 -50 -234 -48 -228 -107 -509 -132 -625 -8 -38 -37 -171 -63
-295 l-47 -225 -162 -3 c-154 -2 -162 -2 -162 17 0 15 115 567 169 811 5 25
44 207 86 405 41 198 82 389 90 425 8 36 49 227 91 425 42 198 78 363 81 368
2 4 74 7 159 7 115 0 156 -3 158 -12z m2268 -28 c-1 -19 -17 -100 -35 -180
l-32 -145 -229 -5 c-190 -4 -230 -8 -237 -20 -9 -18 -129 -587 -129 -612 0
-16 14 -18 160 -18 146 0 160 -2 160 -17 0 -10 -17 -97 -38 -193 l-38 -175
-167 -3 -166 -2 -10 -38 c-16 -67 -131 -617 -131 -630 0 -9 53 -12 223 -12
123 0 226 -2 229 -5 2 -3 -12 -85 -32 -182 l-36 -178 -412 -3 c-227 -1 -412 1
-412 5 0 7 103 497 135 643 8 36 53 247 100 470 47 223 92 432 99 465 7 33 51
238 97 455 45 217 87 401 92 408 8 9 97 12 411 10 l401 -3 -3 -35z m6394 26
c3 -8 -3 -51 -14 -97 -11 -46 -28 -123 -38 -171 l-19 -88 -241 0 c-181 0 -244
-3 -252 -12 -6 -7 -18 -49 -27 -93 -24 -118 -105 -496 -112 -522 l-5 -23 166
0 c91 0 166 -4 166 -9 0 -4 -16 -84 -35 -177 -19 -92 -35 -172 -35 -176 0 -4
-75 -9 -167 -10 l-167 -3 -12 -45 c-6 -25 -19 -79 -27 -120 -127 -595 -190
-886 -194 -892 -2 -5 -83 -8 -179 -8 -142 0 -174 3 -174 14 0 14 97 474 164
781 9 39 50 232 91 430 144 684 256 1210 260 1223 7 19 843 18 851 -2z m1518
5 c3 -4 -12 -86 -33 -182 l-37 -174 -169 -5 -170 -5 -7 -25 c-5 -14 -42 -187
-84 -385 -107 -512 -212 -1009 -229 -1085 -8 -36 -37 -173 -65 -305 -27 -132
-52 -250 -55 -262 -5 -23 -7 -23 -186 -23 l-181 0 6 23 c3 12 30 142 61 287
155 735 197 930 210 990 8 36 35 164 60 285 50 241 69 328 91 423 8 35 12 67
9 73 -4 5 -76 9 -164 9 -87 0 -160 2 -163 5 -5 6 66 336 76 354 9 13 1022 16
1030 2z"/>
<path d="M6463 4215 c-19 -8 -45 -33 -61 -58 -29 -46 -38 -85 -253 -1102 -38
-181 -76 -358 -84 -392 -8 -34 -15 -90 -15 -123 0 -51 4 -65 25 -85 45 -46
121 -31 166 33 43 61 23 -20 234 972 137 646 137 641 129 684 -12 75 -68 103
-141 71z"/>
<path d="M9710 4219 c-66 -26 -89 -73 -129 -259 -18 -80 -38 -174 -46 -210 -8
-36 -46 -216 -85 -400 -39 -184 -77 -364 -85 -400 -23 -106 -64 -301 -75 -359
-19 -101 15 -161 91 -161 45 0 91 35 119 90 25 49 31 77 150 640 39 184 77
364 85 400 113 509 125 601 80 645 -26 26 -62 31 -105 14z"/>
<path d="M0 780 l0 -780 1450 0 1450 0 0 780 0 780 -1450 0 -1450 0 0 -780z"/>
<path d="M3000 780 l0 -780 4545 0 4545 0 0 780 0 780 -4545 0 -4545 0 0 -780z
m5225 -10 c25 -168 45 -313 45 -322 0 -14 -9 -18 -40 -18 -22 0 -40 4 -40 9 0
22 -60 444 -64 448 -4 4 -18 -26 -146 -305 -46 -100 -87 -179 -91 -175 -4 5
-56 115 -115 247 -80 176 -110 234 -115 220 -4 -11 -19 -107 -34 -214 -14
-107 -28 -203 -31 -212 -4 -13 -16 -18 -46 -18 -37 0 -40 2 -35 23 3 12 29
174 58 360 29 185 55 337 58 337 3 0 64 -129 135 -285 71 -157 130 -284 131
-283 1 2 63 133 136 293 l134 290 7 -45 c5 -25 28 -182 53 -350z m-1700 95
c69 -154 127 -281 129 -282 1 -2 45 88 96 200 158 341 172 369 176 364 3 -2
27 -155 54 -338 27 -184 51 -344 53 -357 4 -20 0 -22 -38 -22 l-42 0 -7 53
c-32 256 -49 375 -55 390 -5 13 -39 -51 -120 -228 -63 -135 -117 -242 -121
-238 -5 7 -97 206 -203 443 -19 43 -21 44 -27 20 -4 -14 -20 -118 -35 -232
l-29 -208 -42 0 c-35 0 -41 3 -38 18 2 9 26 166 54 347 51 329 57 361 64 354
2 -2 61 -130 131 -284z m-1931 231 l56 -27 0 -50 0 -49 -51 35 c-64 44 -118
59 -192 52 -96 -9 -176 -68 -219 -162 -34 -75 -32 -192 4 -260 31 -59 67 -95
128 -127 88 -45 234 -25 294 41 29 32 37 26 34 -26 -3 -47 -4 -49 -56 -75 -68
-34 -149 -45 -227 -29 -118 25 -203 91 -254 200 -22 48 -26 69 -26 151 0 81 4
103 26 150 67 142 187 213 350 207 59 -3 90 -10 133 -31z m1017 -3 c81 -38
134 -91 172 -173 27 -57 31 -76 31 -150 0 -71 -5 -95 -28 -146 -34 -77 -102
-144 -181 -181 -52 -24 -72 -28 -150 -28 -78 0 -98 4 -150 28 -188 88 -264
301 -174 492 79 167 303 242 480 158z m5343 3 l56 -27 0 -50 0 -49 -51 35
c-64 44 -118 59 -190 52 -93 -8 -171 -62 -217 -151 -22 -43 -26 -64 -27 -136
0 -70 4 -93 23 -130 32 -60 73 -102 130 -131 91 -46 236 -27 296 40 29 32 37
26 34 -26 -3 -48 -3 -48 -63 -78 -53 -27 -70 -30 -150 -30 -76 0 -99 4 -146
27 -79 36 -133 89 -171 166 -30 61 -33 75 -33 162 0 81 4 103 26 150 67 142
187 213 350 207 59 -3 90 -10 133 -31z m-7316 -8 l-3 -33 -137 -3 -138 -3 0
-99 0 -100 135 0 135 0 0 -35 0 -35 -135 0 -135 0 0 -145 0 -145 140 0 140 0
0 -30 0 -30 -180 0 -180 0 0 345 0 345 181 0 180 0 -3 -32z m5490 0 l-3 -33
-137 -3 -138 -3 0 -99 0 -99 138 -3 137 -3 3 -32 3 -33 -141 0 -141 0 3 -142
3 -143 138 -3 137 -3 0 -29 0 -30 -180 0 -180 0 0 345 0 345 181 0 180 0 -3
-32z m749 9 c71 -38 107 -126 89 -220 -9 -47 -71 -113 -122 -129 l-42 -13 104
-148 c57 -81 104 -150 104 -153 0 -3 -21 -4 -47 -2 l-47 3 -100 147 c-56 81
-107 147 -113 148 -10 0 -13 -36 -13 -150 l0 -150 -40 0 -40 0 0 346 0 346
118 -4 c85 -3 126 -8 149 -21z m1971 -9 l-3 -33 -137 -3 -138 -3 0 -99 0 -100
135 0 135 0 0 -35 0 -35 -135 0 -135 0 0 -145 0 -145 140 0 140 0 0 -30 0 -30
-180 0 -180 0 0 345 0 345 181 0 180 0 -3 -32z"/>
<path d="M5352 1040 c-70 -32 -110 -69 -142 -133 -26 -51 -30 -71 -30 -136 0
-90 22 -146 78 -204 60 -63 105 -81 197 -81 92 0 137 18 197 81 56 58 78 114
78 203 0 123 -58 216 -165 266 -64 30 -152 32 -213 4z"/>
<path d="M9690 925 l0 -125 38 0 c104 0 162 47 162 132 0 44 -4 54 -34 84 -32
32 -38 34 -100 34 l-66 0 0 -125z"/>
<path d="M12190 780 l0 -780 1405 0 1405 0 0 780 0 780 -1405 0 -1405 0 0
-780z"/>
</g>
</svg>
